<svg xmlns="http://www.w3.org/2000/svg" xmlns:xlink="http://www.w3.org/1999/xlink" width="500"
    zoomAndPan="magnify" viewBox="0 0 375 374.999991" height="500"
    preserveAspectRatio="xMidYMid meet" version="1.0">
    <defs>
        <g />
        <clipPath id="dcea737aff">
            <path
                d="M 57.605469 24.113281 L 317.105469 24.113281 L 317.105469 351 L 57.605469 351 Z M 57.605469 24.113281 "
                clip-rule="nonzero" />
        </clipPath>
        <clipPath id="2e875263ea">
            <path
                d="M 143.683594 82.238281 L 182 82.238281 L 182 249.488281 L 143.683594 249.488281 Z M 143.683594 82.238281 "
                clip-rule="nonzero" />
        </clipPath>
        <clipPath id="3326f8ed20">
            <path
                d="M 186 82.238281 L 225 82.238281 L 225 249.488281 L 186 249.488281 Z M 186 82.238281 "
                clip-rule="nonzero" />
        </clipPath>
        <clipPath id="2e533151ea">
            <path d="M 230 163 L 268 163 L 268 249.488281 L 230 249.488281 Z M 230 163 "
                clip-rule="nonzero" />
        </clipPath>
        <clipPath id="179215eb58">
            <rect x="0" width="168" y="0" height="46" />
        </clipPath>
        <clipPath id="71e6cd2108">
            <path d="M 1 143 L 31 143 L 31 170.839844 L 1 170.839844 Z M 1 143 " clip-rule="nonzero" />
        </clipPath>
        <clipPath id="ffb517f10c">
            <rect x="0" width="42" y="0" height="171" />
        </clipPath>
    </defs>
    <g clip-path="url(#dcea737aff)">
        <path fill="#000000"
            d="M 314.25 43.847656 L 317.058594 43.847656 L 317.058594 24.113281 L 297.324219 24.113281 L 297.324219 26.921875 C 297.324219 31.5625 293.53125 35.351562 288.890625 35.351562 C 284.253906 35.351562 280.460938 31.5625 280.460938 26.921875 L 280.460938 24.113281 L 263.535156 24.113281 L 263.535156 26.921875 C 263.535156 31.5625 259.746094 35.351562 255.105469 35.351562 C 250.464844 35.351562 246.675781 31.5625 246.675781 26.921875 L 246.675781 24.113281 L 229.746094 24.113281 L 229.746094 26.921875 C 229.746094 31.5625 225.957031 35.351562 221.316406 35.351562 C 216.675781 35.351562 212.886719 31.5625 212.886719 26.921875 L 212.886719 24.113281 L 195.960938 24.113281 L 195.960938 26.921875 C 195.960938 31.5625 192.167969 35.351562 187.53125 35.351562 C 182.890625 35.351562 179.097656 31.5625 179.097656 26.921875 L 179.097656 24.113281 L 162.171875 24.113281 L 162.171875 26.921875 C 162.171875 31.5625 158.382812 35.351562 153.742188 35.351562 C 149.101562 35.351562 145.3125 31.5625 145.3125 26.921875 L 145.3125 24.113281 L 128.386719 24.113281 L 128.386719 26.921875 C 128.386719 31.5625 124.59375 35.351562 119.953125 35.351562 C 115.316406 35.351562 111.523438 31.5625 111.523438 26.921875 L 111.523438 24.113281 L 94.53125 24.113281 L 94.53125 26.921875 C 94.53125 31.5625 90.742188 35.351562 86.101562 35.351562 C 81.460938 35.351562 77.671875 31.5625 77.671875 26.921875 L 77.671875 24.113281 L 57.933594 24.113281 L 57.933594 43.847656 L 60.746094 43.847656 C 65.382812 43.847656 69.175781 47.640625 69.175781 52.277344 C 69.175781 56.917969 65.382812 60.710938 60.746094 60.710938 L 57.933594 60.710938 L 57.933594 77.636719 L 60.746094 77.636719 C 65.382812 77.636719 69.175781 81.425781 69.175781 86.066406 C 69.175781 90.707031 65.382812 94.496094 60.746094 94.496094 L 57.933594 94.496094 L 57.933594 111.421875 L 60.746094 111.421875 C 65.382812 111.421875 69.175781 115.214844 69.175781 119.855469 C 69.175781 124.496094 65.382812 128.285156 60.746094 128.285156 L 57.933594 128.285156 L 57.933594 145.210938 L 60.746094 145.210938 C 65.382812 145.210938 69.175781 149 69.175781 153.640625 C 69.175781 158.28125 65.382812 162.070312 60.746094 162.070312 L 57.933594 162.070312 L 57.933594 179 L 60.746094 179 C 65.382812 179 69.175781 182.789062 69.175781 187.429688 C 69.175781 192.070312 65.382812 195.859375 60.746094 195.859375 L 57.933594 195.859375 L 57.933594 212.785156 L 60.746094 212.785156 C 65.382812 212.785156 69.175781 216.578125 69.175781 221.214844 C 69.175781 225.855469 65.382812 229.648438 60.746094 229.648438 L 57.933594 229.648438 L 57.933594 246.574219 L 60.746094 246.574219 C 65.382812 246.574219 69.175781 250.363281 69.175781 255.003906 C 69.175781 259.644531 65.382812 263.433594 60.746094 263.433594 L 57.933594 263.433594 L 57.933594 280.363281 L 60.746094 280.363281 C 65.382812 280.363281 69.175781 284.152344 69.175781 288.792969 C 69.175781 293.433594 65.382812 297.222656 60.746094 297.222656 L 57.933594 297.222656 L 57.933594 314.28125 L 60.746094 314.28125 C 65.382812 314.28125 69.175781 318.070312 69.175781 322.710938 C 69.175781 327.351562 65.382812 331.140625 60.746094 331.140625 L 57.933594 331.140625 L 57.933594 350.878906 L 77.671875 350.878906 L 77.671875 348.066406 C 77.671875 343.425781 81.460938 339.636719 86.101562 339.636719 C 90.742188 339.636719 94.53125 343.425781 94.53125 348.066406 L 94.53125 350.878906 L 111.457031 350.878906 L 111.457031 348.066406 C 111.457031 343.425781 115.25 339.636719 119.890625 339.636719 C 124.527344 339.636719 128.320312 343.425781 128.320312 348.066406 L 128.320312 350.878906 L 145.246094 350.878906 L 145.246094 348.066406 C 145.246094 343.425781 149.035156 339.636719 153.675781 339.636719 C 158.316406 339.636719 162.105469 343.425781 162.105469 348.066406 L 162.105469 350.878906 L 179.035156 350.878906 L 179.035156 348.066406 C 179.035156 343.425781 182.824219 339.636719 187.464844 339.636719 C 192.105469 339.636719 195.894531 343.425781 195.894531 348.066406 L 195.894531 350.878906 L 212.820312 350.878906 L 212.820312 348.066406 C 212.820312 343.425781 216.613281 339.636719 221.25 339.636719 C 225.890625 339.636719 229.683594 343.425781 229.683594 348.066406 L 229.683594 350.878906 L 246.609375 350.878906 L 246.609375 348.066406 C 246.609375 343.425781 250.398438 339.636719 255.039062 339.636719 C 259.679688 339.636719 263.46875 343.425781 263.46875 348.066406 L 263.46875 350.878906 L 280.394531 350.878906 L 280.394531 348.066406 C 280.394531 343.425781 284.1875 339.636719 288.828125 339.636719 C 293.46875 339.636719 297.257812 343.425781 297.257812 348.066406 L 297.257812 350.878906 L 316.996094 350.878906 L 316.996094 331.140625 L 314.183594 331.140625 C 309.542969 331.140625 305.753906 327.351562 305.753906 322.710938 C 305.753906 318.070312 309.542969 314.28125 314.183594 314.28125 L 316.996094 314.28125 L 316.996094 297.351562 L 314.183594 297.351562 C 309.542969 297.351562 305.753906 293.5625 305.753906 288.921875 C 305.753906 284.28125 309.542969 280.492188 314.183594 280.492188 L 316.996094 280.492188 L 316.996094 263.566406 L 314.183594 263.566406 C 309.542969 263.566406 305.753906 259.773438 305.753906 255.136719 C 305.753906 250.496094 309.542969 246.703125 314.183594 246.703125 L 316.996094 246.703125 L 316.996094 229.777344 L 314.183594 229.777344 C 309.542969 229.777344 305.753906 225.988281 305.753906 221.347656 C 305.753906 216.707031 309.542969 212.917969 314.183594 212.917969 L 316.996094 212.917969 L 316.996094 195.992188 L 314.183594 195.992188 C 309.542969 195.992188 305.753906 192.199219 305.753906 187.558594 C 305.753906 182.921875 309.542969 179.128906 314.183594 179.128906 L 316.996094 179.128906 L 316.996094 162.203125 L 314.183594 162.203125 C 309.542969 162.203125 305.753906 158.414062 305.753906 153.773438 C 305.753906 149.132812 309.542969 145.34375 314.183594 145.34375 L 316.996094 145.34375 L 316.996094 128.414062 L 314.183594 128.414062 C 309.542969 128.414062 305.753906 124.625 305.753906 119.984375 C 305.753906 115.34375 309.542969 111.554688 314.183594 111.554688 L 316.996094 111.554688 L 316.996094 94.628906 L 314.183594 94.628906 C 309.542969 94.628906 305.753906 90.835938 305.753906 86.199219 C 305.753906 81.558594 309.542969 77.765625 314.183594 77.765625 L 316.996094 77.765625 L 316.996094 60.710938 L 314.183594 60.710938 C 309.542969 60.710938 305.753906 56.917969 305.753906 52.277344 C 305.753906 47.640625 309.609375 43.847656 314.25 43.847656 Z M 311.4375 66.070312 L 311.4375 72.277344 C 305.035156 73.585938 300.199219 79.269531 300.199219 86.066406 C 300.199219 92.863281 305.035156 98.550781 311.4375 99.855469 L 311.4375 106.066406 C 305.035156 107.371094 300.199219 113.058594 300.199219 119.855469 C 300.199219 126.652344 305.035156 132.335938 311.4375 133.644531 L 311.4375 139.851562 C 305.035156 141.160156 300.199219 146.84375 300.199219 153.640625 C 300.199219 160.4375 305.035156 166.125 311.4375 167.429688 L 311.4375 173.640625 C 305.035156 174.945312 300.199219 180.632812 300.199219 187.429688 C 300.199219 194.226562 305.035156 199.910156 311.4375 201.21875 L 311.4375 207.425781 C 305.035156 208.734375 300.199219 214.421875 300.199219 221.21875 C 300.199219 228.011719 305.035156 233.699219 311.4375 235.007812 L 311.4375 241.214844 C 305.035156 242.523438 300.199219 248.207031 300.199219 255.003906 C 300.199219 261.800781 305.035156 267.488281 311.4375 268.792969 L 311.4375 275.003906 C 305.035156 276.308594 300.199219 281.996094 300.199219 288.792969 C 300.199219 295.589844 305.035156 301.273438 311.4375 302.582031 L 311.4375 308.789062 C 305.035156 310.097656 300.199219 315.78125 300.199219 322.578125 C 300.199219 329.375 305.035156 335.0625 311.4375 336.367188 L 311.4375 345.125 L 302.683594 345.125 C 301.375 338.722656 295.6875 333.886719 288.890625 333.886719 C 282.09375 333.886719 276.410156 338.722656 275.101562 345.125 L 268.894531 345.125 C 267.585938 338.722656 261.902344 333.886719 255.105469 333.886719 C 248.308594 333.886719 242.621094 338.722656 241.316406 345.125 L 235.105469 345.125 C 233.800781 338.722656 228.113281 333.886719 221.316406 333.886719 C 214.519531 333.886719 208.835938 338.722656 207.527344 345.125 L 201.320312 345.125 C 200.011719 338.722656 194.328125 333.886719 187.53125 333.886719 C 180.734375 333.886719 175.046875 338.722656 173.738281 345.125 L 167.53125 345.125 C 166.222656 338.722656 160.539062 333.886719 153.742188 333.886719 C 146.945312 333.886719 141.257812 338.722656 139.953125 345.125 L 133.742188 345.125 C 132.4375 338.722656 126.75 333.886719 119.953125 333.886719 C 113.15625 333.886719 107.472656 338.722656 106.164062 345.125 L 99.957031 345.125 C 98.648438 338.722656 92.964844 333.886719 86.167969 333.886719 C 79.371094 333.886719 73.621094 338.851562 72.3125 345.257812 L 63.554688 345.257812 L 63.554688 336.5 C 69.960938 335.191406 74.796875 329.507812 74.796875 322.710938 C 74.796875 315.914062 69.960938 310.226562 63.554688 308.921875 L 63.554688 302.710938 C 69.960938 301.40625 74.796875 295.71875 74.796875 288.921875 C 74.796875 282.125 69.960938 276.441406 63.554688 275.132812 L 63.554688 268.925781 C 69.960938 267.617188 74.796875 261.933594 74.796875 255.136719 C 74.796875 248.339844 69.960938 242.652344 63.554688 241.34375 L 63.554688 235.136719 C 69.960938 233.828125 74.796875 228.144531 74.796875 221.347656 C 74.796875 214.550781 69.960938 208.863281 63.554688 207.558594 L 63.554688 201.347656 C 69.960938 200.042969 74.796875 194.355469 74.796875 187.558594 C 74.796875 180.761719 69.960938 175.078125 63.554688 173.769531 L 63.554688 167.5625 C 69.960938 166.253906 74.796875 160.570312 74.796875 153.773438 C 74.796875 146.976562 69.960938 141.289062 63.554688 139.984375 L 63.554688 133.773438 C 69.960938 132.46875 74.796875 126.78125 74.796875 119.984375 C 74.796875 113.1875 69.960938 107.503906 63.554688 106.195312 L 63.554688 99.988281 C 69.960938 98.679688 74.796875 92.992188 74.796875 86.195312 C 74.796875 79.402344 69.960938 73.585938 63.554688 72.277344 L 63.554688 66.070312 C 69.960938 64.761719 74.796875 59.074219 74.796875 52.277344 C 74.796875 45.480469 69.960938 39.796875 63.554688 38.488281 L 63.554688 29.730469 L 72.3125 29.730469 C 73.621094 36.136719 79.304688 40.972656 86.101562 40.972656 C 92.898438 40.972656 98.585938 36.136719 99.890625 29.730469 L 106.101562 29.730469 C 107.40625 36.136719 113.09375 40.972656 119.890625 40.972656 C 126.6875 40.972656 132.371094 36.136719 133.679688 29.730469 L 139.886719 29.730469 C 141.195312 36.136719 146.878906 40.972656 153.675781 40.972656 C 160.472656 40.972656 166.160156 36.136719 167.464844 29.730469 L 173.675781 29.730469 C 174.980469 36.136719 180.667969 40.972656 187.464844 40.972656 C 194.261719 40.972656 199.945312 36.136719 201.253906 29.730469 L 207.460938 29.730469 C 208.769531 36.136719 214.457031 40.972656 221.25 40.972656 C 228.046875 40.972656 233.734375 36.136719 235.042969 29.730469 L 241.25 29.730469 C 242.558594 36.136719 248.242188 40.972656 255.039062 40.972656 C 261.835938 40.972656 267.523438 36.136719 268.828125 29.730469 L 275.039062 29.730469 C 276.34375 36.136719 282.03125 40.972656 288.828125 40.972656 C 295.625 40.972656 301.308594 36.136719 302.617188 29.730469 L 311.375 29.730469 L 311.375 38.488281 C 304.96875 39.796875 300.132812 45.480469 300.132812 52.277344 C 300.132812 59.074219 305.035156 64.761719 311.4375 66.070312 Z M 91.722656 317.089844 L 283.273438 317.089844 L 283.273438 57.898438 L 91.722656 57.898438 Z M 97.34375 63.519531 L 277.652344 63.519531 L 277.652344 311.402344 L 97.34375 311.402344 Z M 97.34375 63.519531 "
            fill-opacity="1" fill-rule="nonzero" />
    </g>
    <path fill="#ffffff"
        d="M 189.652344 214.597656 L 222 214.597656 L 222 225.382812 L 189.652344 225.382812 Z M 189.652344 214.597656 "
        fill-opacity="1" fill-rule="nonzero" />
    <path fill="#ffffff"
        d="M 205.828125 85.203125 L 196.121094 101.378906 L 215.53125 101.378906 Z M 205.828125 85.203125 "
        fill-opacity="1" fill-rule="nonzero" />
    <path fill="#ffffff"
        d="M 259.742188 166.074219 L 238.175781 166.074219 C 235.195312 166.074219 232.785156 168.488281 232.785156 171.46875 L 232.785156 201.121094 L 265.132812 201.121094 L 265.132812 171.46875 C 265.132812 168.488281 262.71875 166.074219 259.742188 166.074219 Z M 259.742188 166.074219 "
        fill-opacity="1" fill-rule="nonzero" />
    <path fill="#ffffff"
        d="M 232.785156 241.554688 C 232.785156 244.535156 235.195312 246.945312 238.175781 246.945312 L 259.742188 246.945312 C 262.71875 246.945312 265.132812 244.535156 265.132812 241.554688 L 265.132812 211.902344 L 232.785156 211.902344 Z M 232.785156 241.554688 "
        fill-opacity="1" fill-rule="nonzero" />
    <g clip-path="url(#2e875263ea)">
        <path fill="#000000"
            d="M 178.871094 249.640625 C 180.359375 249.640625 181.566406 248.433594 181.566406 246.945312 L 181.566406 85.203125 C 181.566406 83.71875 180.359375 82.507812 178.871094 82.507812 L 146.523438 82.507812 C 145.03125 82.507812 143.824219 83.71875 143.824219 85.203125 L 143.824219 246.945312 C 143.824219 248.433594 145.03125 249.640625 146.523438 249.640625 Z M 176.175781 87.902344 L 176.175781 244.25 L 149.21875 244.25 L 149.21875 238.859375 L 170.78125 238.859375 L 170.78125 233.46875 L 149.21875 233.46875 L 149.21875 228.078125 L 160 228.078125 L 160 222.683594 L 149.21875 222.683594 L 149.21875 217.292969 L 170.78125 217.292969 L 170.78125 211.902344 L 149.21875 211.902344 L 149.21875 206.511719 L 160 206.511719 L 160 201.121094 L 149.21875 201.121094 L 149.21875 195.726562 L 170.78125 195.726562 L 170.78125 190.335938 L 149.21875 190.335938 L 149.21875 184.945312 L 160 184.945312 L 160 179.554688 L 149.21875 179.554688 L 149.21875 174.164062 L 170.78125 174.164062 L 170.78125 168.769531 L 149.21875 168.769531 L 149.21875 163.378906 L 160 163.378906 L 160 157.988281 L 149.21875 157.988281 L 149.21875 152.597656 L 170.78125 152.597656 L 170.78125 147.207031 L 149.21875 147.207031 L 149.21875 141.816406 L 160 141.816406 L 160 136.421875 L 149.21875 136.421875 L 149.21875 131.03125 L 170.78125 131.03125 L 170.78125 125.640625 L 149.21875 125.640625 L 149.21875 120.25 L 160 120.25 L 160 114.859375 L 149.21875 114.859375 L 149.21875 109.464844 L 170.78125 109.464844 L 170.78125 104.074219 L 149.21875 104.074219 L 149.21875 98.683594 L 160 98.683594 L 160 93.292969 L 149.21875 93.292969 L 149.21875 87.902344 Z M 176.175781 87.902344 "
            fill-opacity="1" fill-rule="nonzero" />
    </g>
    <g clip-path="url(#3326f8ed20)">
        <path fill="#000000"
            d="M 224.695312 241.554688 L 224.695312 112.160156 C 224.695312 111.675781 224.5625 111.195312 224.3125 110.773438 L 208.136719 83.816406 C 207.164062 82.191406 204.488281 82.191406 203.515625 83.816406 L 187.339844 110.773438 C 187.089844 111.195312 186.957031 111.675781 186.957031 112.160156 L 186.957031 241.554688 C 186.957031 246.015625 190.585938 249.640625 195.042969 249.640625 L 216.609375 249.640625 C 221.066406 249.640625 224.695312 246.015625 224.695312 241.554688 Z M 219.304688 211.902344 L 208.523438 211.902344 L 208.523438 121.363281 L 213.914062 115.972656 L 219.304688 121.363281 Z M 203.132812 211.902344 L 192.347656 211.902344 L 192.347656 121.363281 L 197.738281 115.972656 L 203.132812 121.363281 Z M 192.347656 217.292969 L 219.304688 217.292969 L 219.304688 222.683594 L 192.347656 222.683594 Z M 205.828125 90.445312 L 210.769531 98.683594 L 200.886719 98.683594 Z M 197.648438 104.074219 L 214.003906 104.074219 L 219.304688 112.910156 L 219.304688 113.742188 L 215.820312 110.257812 C 214.765625 109.203125 213.0625 109.203125 212.007812 110.257812 L 205.828125 116.4375 L 199.644531 110.257812 C 198.589844 109.203125 196.886719 109.203125 195.832031 110.257812 L 192.347656 113.742188 L 192.347656 112.910156 Z M 192.347656 241.554688 L 192.347656 228.078125 L 219.304688 228.078125 L 219.304688 241.554688 C 219.304688 243.039062 218.097656 244.25 216.609375 244.25 L 195.042969 244.25 C 193.554688 244.25 192.347656 243.039062 192.347656 241.554688 Z M 192.347656 241.554688 "
            fill-opacity="1" fill-rule="nonzero" />
    </g>
    <g clip-path="url(#2e533151ea)">
        <path fill="#000000"
            d="M 238.175781 249.640625 L 259.742188 249.640625 C 264.199219 249.640625 267.828125 246.015625 267.828125 241.554688 L 267.828125 171.46875 C 267.828125 167.007812 264.199219 163.378906 259.742188 163.378906 L 238.175781 163.378906 C 233.714844 163.378906 230.085938 167.007812 230.085938 171.46875 L 230.085938 241.554688 C 230.085938 246.015625 233.714844 249.640625 238.175781 249.640625 Z M 259.742188 244.25 L 238.175781 244.25 C 236.6875 244.25 235.480469 243.039062 235.480469 241.554688 L 235.480469 214.597656 L 262.4375 214.597656 L 262.4375 241.554688 C 262.4375 243.039062 261.226562 244.25 259.742188 244.25 Z M 235.480469 209.207031 L 235.480469 203.816406 L 262.4375 203.816406 L 262.4375 209.207031 Z M 238.175781 168.769531 L 259.742188 168.769531 C 261.226562 168.769531 262.4375 169.980469 262.4375 171.46875 L 262.4375 198.425781 L 235.480469 198.425781 L 235.480469 171.46875 C 235.480469 169.980469 236.6875 168.769531 238.175781 168.769531 Z M 238.175781 168.769531 "
            fill-opacity="1" fill-rule="nonzero" />
    </g>
    <g transform="matrix(1, 0, 0, 1, 102, 258)">
        <g clip-path="url(#179215eb58)">
            <g fill="#000000" fill-opacity="1">
                <g transform="translate(1.117285, 34.383485)">
                    <g>
                        <path
                            d="M 8.125 0 L 8.125 -25.15625 L 0.921875 -25.15625 L 0.921875 -30.71875 L 21.46875 -30.71875 L 21.46875 -25.15625 L 14.3125 -25.15625 L 14.3125 0 Z M 8.125 0 " />
                    </g>
                </g>
            </g>
            <g fill="#000000" fill-opacity="1">
                <g transform="translate(24.859719, 34.383485)">
                    <g>
                        <path
                            d="M 2.9375 0 L 2.9375 -30.71875 L 12.203125 -30.71875 C 14.453125 -30.71875 16.34375 -30.304688 17.875 -29.484375 C 19.414062 -28.671875 20.585938 -27.578125 21.390625 -26.203125 C 22.203125 -24.828125 22.609375 -23.289062 22.609375 -21.59375 C 22.609375 -19.71875 22.179688 -18.082031 21.328125 -16.6875 C 20.484375 -15.300781 19.359375 -14.226562 17.953125 -13.46875 L 25.234375 0 L 18.390625 0 L 12.421875 -12.03125 L 9.125 -12.03125 L 9.125 0 Z M 9.125 -17.25 L 12.03125 -17.25 C 13.132812 -17.25 14.109375 -17.597656 14.953125 -18.296875 C 15.804688 -19.003906 16.234375 -20.03125 16.234375 -21.375 C 16.234375 -22.601562 15.832031 -23.578125 15.03125 -24.296875 C 14.226562 -25.015625 13.125 -25.375 11.71875 -25.375 L 9.125 -25.375 Z M 9.125 -17.25 " />
                    </g>
                </g>
            </g>
            <g fill="#000000" fill-opacity="1">
                <g transform="translate(51.849674, 34.383485)">
                    <g>
                        <path
                            d="M 17.296875 0.578125 C 14.921875 0.578125 12.757812 0.175781 10.8125 -0.625 C 8.875 -1.4375 7.191406 -2.566406 5.765625 -4.015625 C 4.347656 -5.460938 3.25 -7.148438 2.46875 -9.078125 C 1.695312 -11.015625 1.3125 -13.109375 1.3125 -15.359375 C 1.3125 -17.609375 1.695312 -19.691406 2.46875 -21.609375 C 3.25 -23.523438 4.347656 -25.210938 5.765625 -26.671875 C 7.191406 -28.140625 8.875 -29.273438 10.8125 -30.078125 C 12.757812 -30.890625 14.921875 -31.296875 17.296875 -31.296875 C 19.660156 -31.296875 21.816406 -30.890625 23.765625 -30.078125 C 25.710938 -29.273438 27.394531 -28.140625 28.8125 -26.671875 C 30.226562 -25.210938 31.320312 -23.523438 32.09375 -21.609375 C 32.875 -19.691406 33.265625 -17.609375 33.265625 -15.359375 C 33.265625 -13.109375 32.875 -11.015625 32.09375 -9.078125 C 31.320312 -7.148438 30.226562 -5.460938 28.8125 -4.015625 C 27.394531 -2.566406 25.710938 -1.4375 23.765625 -0.625 C 21.816406 0.175781 19.660156 0.578125 17.296875 0.578125 Z M 17.296875 -25.5 C 15.453125 -25.5 13.8125 -25.054688 12.375 -24.171875 C 10.9375 -23.296875 9.804688 -22.09375 8.984375 -20.5625 C 8.171875 -19.03125 7.765625 -17.296875 7.765625 -15.359375 C 7.765625 -13.398438 8.171875 -11.660156 8.984375 -10.140625 C 9.804688 -8.617188 10.9375 -7.414062 12.375 -6.53125 C 13.8125 -5.65625 15.453125 -5.21875 17.296875 -5.21875 C 19.140625 -5.21875 20.773438 -5.65625 22.203125 -6.53125 C 23.640625 -7.414062 24.765625 -8.617188 25.578125 -10.140625 C 26.398438 -11.660156 26.8125 -13.398438 26.8125 -15.359375 C 26.8125 -17.296875 26.398438 -19.03125 25.578125 -20.5625 C 24.765625 -22.09375 23.640625 -23.296875 22.203125 -24.171875 C 20.773438 -25.054688 19.140625 -25.5 17.296875 -25.5 Z M 17.296875 -25.5 " />
                    </g>
                </g>
            </g>
            <g fill="#000000" fill-opacity="1">
                <g transform="translate(87.748339, 34.383485)">
                    <g>
                        <path
                            d="M 9.75 0 L 9.75 -14.046875 L 0.3125 -30.71875 L 7.28125 -30.71875 L 12.8125 -19.703125 L 18.34375 -30.71875 L 25.328125 -30.71875 L 15.890625 -14.046875 L 15.890625 0 Z M 9.75 0 " />
                    </g>
                </g>
            </g>
            <g fill="#000000" fill-opacity="1">
                <g transform="translate(114.6944, 34.383485)">
                    <g>
                        <path
                            d="M 17.34375 0.578125 C 14.9375 0.578125 12.753906 0.175781 10.796875 -0.625 C 8.835938 -1.4375 7.144531 -2.566406 5.71875 -4.015625 C 4.300781 -5.460938 3.210938 -7.148438 2.453125 -9.078125 C 1.691406 -11.015625 1.3125 -13.109375 1.3125 -15.359375 C 1.3125 -17.609375 1.707031 -19.695312 2.5 -21.625 C 3.289062 -23.5625 4.410156 -25.253906 5.859375 -26.703125 C 7.304688 -28.148438 9.003906 -29.273438 10.953125 -30.078125 C 12.898438 -30.890625 15.03125 -31.296875 17.34375 -31.296875 C 19.382812 -31.296875 21.164062 -31.007812 22.6875 -30.4375 C 24.207031 -29.863281 25.46875 -29.210938 26.46875 -28.484375 L 24.703125 -23.046875 C 23.972656 -23.566406 22.945312 -24.101562 21.625 -24.65625 C 20.3125 -25.21875 18.882812 -25.5 17.34375 -25.5 C 15.5 -25.5 13.847656 -25.054688 12.390625 -24.171875 C 10.941406 -23.296875 9.804688 -22.09375 8.984375 -20.5625 C 8.171875 -19.03125 7.765625 -17.296875 7.765625 -15.359375 C 7.765625 -13.398438 8.171875 -11.660156 8.984375 -10.140625 C 9.804688 -8.617188 10.941406 -7.414062 12.390625 -6.53125 C 13.847656 -5.65625 15.5 -5.21875 17.34375 -5.21875 C 19.007812 -5.21875 20.515625 -5.507812 21.859375 -6.09375 C 23.203125 -6.6875 24.238281 -7.226562 24.96875 -7.71875 L 26.734375 -2.328125 C 25.828125 -1.648438 24.597656 -0.992188 23.046875 -0.359375 C 21.492188 0.265625 19.59375 0.578125 17.34375 0.578125 Z M 17.34375 0.578125 " />
                    </g>
                </g>
            </g>
            <g fill="#000000" fill-opacity="1">
                <g transform="translate(144.010274, 34.383485)">
                    <g>
                        <path
                            d="M 2.9375 0 L 2.9375 -30.71875 L 18.734375 -30.71875 L 18.734375 -25.15625 L 9.125 -25.15625 L 9.125 -18.296875 L 17.375 -18.296875 L 17.375 -12.8125 L 9.125 -12.8125 L 9.125 -5.53125 L 19.140625 -5.53125 L 19.140625 0 Z M 2.9375 0 " />
                    </g>
                </g>
            </g>
        </g>
    </g>
    <g transform="matrix(1, 0, 0, 1, 102, 79)">
        <g clip-path="url(#ffb517f10c)">
            <g clip-path="url(#71e6cd2108)">
                <g fill="#000000" fill-opacity="1">
                    <g transform="translate(30.682824, 170.63391)">
                        <g>
                            <path
                                d="M -7.515625 -18.734375 L -7.515625 -8.796875 L 0 -6.25 L 0 -0.328125 L -29.203125 -10.6875 L -29.203125 -16.859375 L 0 -27.203125 L 0 -21.28125 Z M -12.390625 -17.1875 L -22.90625 -13.765625 L -12.390625 -10.390625 Z M -12.390625 -17.1875 " />
                        </g>
                    </g>
                </g>
            </g>
            <g fill="#000000" fill-opacity="1">
                <g transform="translate(30.682824, 139.391789)">
                    <g>
                        <path
                            d="M 0 -7.71875 L -23.90625 -7.71875 L -23.90625 -0.875 L -29.203125 -0.875 L -29.203125 -20.40625 L -23.90625 -20.40625 L -23.90625 -13.59375 L 0 -13.59375 Z M 0 -7.71875 " />
                    </g>
                </g>
            </g>
            <g fill="#000000" fill-opacity="1">
                <g transform="translate(30.682824, 114.364619)">
                    <g>
                        <path
                            d="M 0 -2.796875 L -29.203125 -2.796875 L -29.203125 -17.8125 L -23.90625 -17.8125 L -23.90625 -8.671875 L -17.390625 -8.671875 L -17.390625 -16.515625 L -12.1875 -16.515625 L -12.1875 -8.671875 L -5.25 -8.671875 L -5.25 -18.1875 L 0 -18.1875 Z M 0 -2.796875 " />
                    </g>
                </g>
            </g>
            <g fill="#000000" fill-opacity="1">
                <g transform="translate(30.682824, 90.588773)">
                    <g>
                        <path
                            d="M 0 -2.796875 L -29.203125 -2.796875 L -29.203125 -8.671875 L -5.296875 -8.671875 L -5.296875 -18.1875 L 0 -18.1875 Z M 0 -2.796875 " />
                    </g>
                </g>
            </g>
            <g fill="#000000" fill-opacity="1">
                <g transform="translate(30.682824, 67.897409)">
                    <g>
                        <path
                            d="M 0 -2.796875 L -29.203125 -2.796875 L -29.203125 -8.671875 L 0 -8.671875 Z M 0 -2.796875 " />
                    </g>
                </g>
            </g>
            <g fill="#000000" fill-opacity="1">
                <g transform="translate(30.682824, 52.714039)">
                    <g>
                        <path
                            d="M 0 -2.796875 L -29.203125 -2.796875 L -29.203125 -17.8125 L -23.90625 -17.8125 L -23.90625 -8.671875 L -17.390625 -8.671875 L -17.390625 -16.515625 L -12.1875 -16.515625 L -12.1875 -8.671875 L -5.25 -8.671875 L -5.25 -18.1875 L 0 -18.1875 Z M 0 -2.796875 " />
                    </g>
                </g>
            </g>
            <g fill="#000000" fill-opacity="1">
                <g transform="translate(30.682824, 28.938192)">
                    <g>
                        <path
                            d="M 0 -2.796875 L -29.203125 -2.796875 L -29.203125 -11.59375 C -29.203125 -13.738281 -28.8125 -15.539062 -28.03125 -17 C -27.25 -18.457031 -26.203125 -19.566406 -24.890625 -20.328125 C -23.585938 -21.097656 -22.132812 -21.484375 -20.53125 -21.484375 C -18.75 -21.484375 -17.195312 -21.078125 -15.875 -20.265625 C -14.550781 -19.460938 -13.53125 -18.394531 -12.8125 -17.0625 L 0 -23.984375 L 0 -17.484375 L -11.4375 -11.8125 L -11.4375 -8.671875 L 0 -8.671875 Z M -16.390625 -8.671875 L -16.390625 -11.4375 C -16.390625 -12.488281 -16.722656 -13.414062 -17.390625 -14.21875 C -18.054688 -15.03125 -19.03125 -15.4375 -20.3125 -15.4375 C -21.476562 -15.4375 -22.398438 -15.050781 -23.078125 -14.28125 C -23.765625 -13.519531 -24.109375 -12.472656 -24.109375 -11.140625 L -24.109375 -8.671875 Z M -16.390625 -8.671875 " />
                    </g>
                </g>
            </g>
        </g>
    </g>
</svg>