<svg xmlns="http://www.w3.org/2000/svg" xmlns:xlink="http://www.w3.org/1999/xlink" width="500" zoomAndPan="magnify" viewBox="0 0 375 374.999991" height="500" preserveAspectRatio="xMidYMid meet" version="1.2"><defs/><g id="e332ed860d"><g style="fill:#000000;fill-opacity:1;"><g transform="translate(79.352631, 338.261404)"><path style="stroke:none" d="M 152.0625 0 C 149.300781 -3.59375 147.09375 -11.46875 145.4375 -23.625 L 144.609375 -23.625 C 138.535156 -14.5 130.800781 -7.453125 121.40625 -2.484375 C 112.007812 2.484375 98.890625 4.96875 82.046875 4.96875 C 59.671875 4.96875 41.710938 -0.691406 28.171875 -12.015625 C 14.640625 -23.335938 7.875 -39.359375 7.875 -60.078125 C 7.875 -81.628906 15.332031 -97.445312 30.25 -107.53125 C 45.164062 -117.613281 66.160156 -124.585938 93.234375 -128.453125 C 113.117188 -131.210938 126.648438 -134.039062 133.828125 -136.9375 C 141.015625 -139.84375 144.609375 -145.023438 144.609375 -152.484375 C 144.609375 -160.222656 141.566406 -166.367188 135.484375 -170.921875 C 129.410156 -175.484375 120.570312 -177.765625 108.96875 -177.765625 C 83.28125 -177.765625 69.609375 -167.816406 67.953125 -147.921875 L 17.8125 -147.921875 C 18.644531 -168.085938 26.796875 -184.800781 42.265625 -198.0625 C 57.734375 -211.320312 80.109375 -217.953125 109.390625 -217.953125 C 169.054688 -217.953125 198.890625 -191.847656 198.890625 -139.640625 L 198.890625 -31.484375 C 198.890625 -15.460938 201.375 -5.660156 206.34375 -2.078125 L 206.34375 0 Z M 95.71875 -34.390625 C 111.1875 -34.390625 123.410156 -38.394531 132.390625 -46.40625 C 141.367188 -54.414062 145.859375 -63.945312 145.859375 -75 L 145.859375 -106.90625 C 139.773438 -103.3125 126.648438 -99.164062 106.484375 -94.46875 C 90.460938 -90.882812 79.132812 -86.8125 72.5 -82.25 C 65.875 -77.6875 62.5625 -70.710938 62.5625 -61.328125 C 62.5625 -43.367188 73.613281 -34.390625 95.71875 -34.390625 Z M 95.71875 -34.390625 "/></g></g></g></svg>