<svg xmlns="http://www.w3.org/2000/svg" xmlns:xlink="http://www.w3.org/1999/xlink" width="500" zoomAndPan="magnify" viewBox="0 0 375 374.999991" height="500" preserveAspectRatio="xMidYMid meet" version="1.2"><defs/><g id="e16d782f17"><g style="fill:#000000;fill-opacity:1;"><g transform="translate(74.794037, 338.261462)"><path style="stroke:none" d="M 118.09375 6.21875 C 83.84375 6.21875 56.910156 -4.347656 37.296875 -25.484375 C 17.679688 -46.617188 7.875 -73.617188 7.875 -106.484375 C 7.875 -138.253906 17.679688 -164.84375 37.296875 -186.25 C 56.910156 -207.664062 82.046875 -218.375 112.703125 -218.375 C 146.128906 -218.375 171.957031 -206.769531 190.1875 -183.5625 C 208.414062 -160.351562 217.53125 -129.273438 217.53125 -90.328125 L 63.390625 -90.328125 C 65.609375 -73.472656 71.273438 -60.421875 80.390625 -51.171875 C 89.503906 -41.921875 101.929688 -37.296875 117.671875 -37.296875 C 138.390625 -37.296875 152.066406 -45.992188 158.703125 -63.390625 L 214.21875 -63.390625 C 210.082031 -43.503906 199.585938 -26.929688 182.734375 -13.671875 C 165.878906 -0.410156 144.332031 6.21875 118.09375 6.21875 Z M 113.53125 -174.859375 C 86.1875 -174.859375 69.75 -159.664062 64.21875 -129.28125 L 158.703125 -129.28125 C 157.867188 -142.8125 153.304688 -153.789062 145.015625 -162.21875 C 136.734375 -170.644531 126.238281 -174.859375 113.53125 -174.859375 Z M 113.53125 -174.859375 "/></g></g></g></svg>