<svg xmlns="http://www.w3.org/2000/svg" xmlns:xlink="http://www.w3.org/1999/xlink" width="500" zoomAndPan="magnify" viewBox="0 0 375 374.999991" height="500" preserveAspectRatio="xMidYMid meet" version="1.0"><defs><g/></defs><g fill="#000000" fill-opacity="1"><g transform="translate(62.561683, 330.072619)"><g><path d="M 92.390625 0 L 33.140625 0 L 33.140625 -295.828125 L 149.578125 -295.828125 C 166.148438 -295.828125 180.304688 -292.507812 192.046875 -285.875 C 203.785156 -279.25 213.101562 -270.550781 220 -259.78125 C 226.90625 -249.007812 231.53125 -237.0625 233.875 -223.9375 C 236.226562 -210.820312 236.226562 -197.769531 233.875 -184.78125 C 231.53125 -171.800781 226.835938 -159.925781 219.796875 -149.15625 C 212.753906 -138.382812 203.363281 -129.679688 191.625 -123.046875 C 179.882812 -116.421875 165.867188 -113.109375 149.578125 -113.109375 L 92.390625 -113.109375 Z M 92.390625 -170.703125 L 144.59375 -170.703125 C 152.601562 -170.703125 158.957031 -172.910156 163.65625 -177.328125 C 168.351562 -181.753906 171.53125 -187.28125 173.1875 -193.90625 C 174.84375 -200.53125 174.84375 -207.15625 173.1875 -213.78125 C 171.53125 -220.414062 168.351562 -225.941406 163.65625 -230.359375 C 158.957031 -234.785156 152.601562 -237 144.59375 -237 L 92.390625 -237 Z M 92.390625 -170.703125 "/></g></g></g></svg>