<svg xmlns="http://www.w3.org/2000/svg" xmlns:xlink="http://www.w3.org/1999/xlink" width="500" zoomAndPan="magnify" viewBox="0 0 375 374.999991" height="500" preserveAspectRatio="xMidYMid meet" version="1.0"><defs><g/></defs><g fill="#000000" fill-opacity="1"><g transform="translate(60.475646, 329.575913)"><g><path d="M 180.640625 0 L 120.984375 -113.109375 L 92.390625 -113.109375 L 92.390625 0 L 33.140625 0 L 33.140625 -296.25 L 149.984375 -296.25 C 167.660156 -296.25 182.644531 -292.585938 194.9375 -285.265625 C 207.226562 -277.941406 216.828125 -268.410156 223.734375 -256.671875 C 230.640625 -244.929688 234.921875 -232.222656 236.578125 -218.546875 C 238.234375 -204.878906 237.195312 -191.484375 233.46875 -178.359375 C 229.738281 -165.242188 223.382812 -153.644531 214.40625 -143.5625 C 205.4375 -133.476562 193.628906 -126.367188 178.984375 -122.234375 L 247.765625 0 Z M 92.390625 -170.703125 L 144.59375 -170.703125 C 152.601562 -170.703125 159.023438 -172.910156 163.859375 -177.328125 C 168.703125 -181.753906 171.953125 -187.28125 173.609375 -193.90625 C 175.265625 -200.53125 175.265625 -207.15625 173.609375 -213.78125 C 171.953125 -220.414062 168.703125 -225.941406 163.859375 -230.359375 C 159.023438 -234.785156 152.601562 -237 144.59375 -237 L 92.390625 -237 Z M 92.390625 -170.703125 "/></g></g></g></svg>