<svg xmlns="http://www.w3.org/2000/svg" xmlns:xlink="http://www.w3.org/1999/xlink" width="500" zoomAndPan="magnify" viewBox="0 0 375 374.999991" height="500" preserveAspectRatio="xMidYMid meet" version="1.0"><defs><g/></defs><g fill="#000000" fill-opacity="1"><g transform="translate(58.84593, 329.575913)"><g><path d="M 33.140625 0 L 33.140625 -296.65625 L 150.40625 -296.65625 C 168.082031 -296.65625 183.269531 -292.785156 195.96875 -285.046875 C 208.675781 -277.316406 218.414062 -266.6875 225.1875 -253.15625 C 231.957031 -239.625 235.066406 -224.15625 234.515625 -206.75 C 234.234375 -195.695312 231.953125 -184.785156 227.671875 -174.015625 C 223.390625 -163.242188 216.550781 -154.679688 207.15625 -148.328125 C 216.832031 -141.703125 224.363281 -133.070312 229.75 -122.4375 C 235.132812 -111.800781 237.828125 -100.679688 237.828125 -89.078125 C 237.828125 -72.503906 233.890625 -57.519531 226.015625 -44.125 C 218.140625 -30.726562 207.570312 -20.023438 194.3125 -12.015625 C 181.0625 -4.003906 166.425781 0 150.40625 0 Z M 92.8125 -237.40625 L 92.8125 -177.75 L 145.421875 -177.75 C 153.984375 -177.75 160.679688 -180.71875 165.515625 -186.65625 C 170.359375 -192.59375 172.78125 -199.566406 172.78125 -207.578125 C 172.78125 -215.867188 170.359375 -222.910156 165.515625 -228.703125 C 160.679688 -234.503906 153.984375 -237.40625 145.421875 -237.40625 Z M 92.8125 -118.5 L 92.8125 -59.25 L 145.421875 -59.25 C 153.984375 -59.25 161.097656 -62.148438 166.765625 -67.953125 C 172.429688 -73.753906 175.265625 -80.796875 175.265625 -89.078125 C 175.265625 -97.367188 172.429688 -104.34375 166.765625 -110 C 161.097656 -115.664062 153.984375 -118.5 145.421875 -118.5 Z M 92.8125 -118.5 "/></g></g></g></svg>