<svg xmlns="http://www.w3.org/2000/svg" xmlns:xlink="http://www.w3.org/1999/xlink" width="500" zoomAndPan="magnify" viewBox="0 0 375 374.999991" height="500" preserveAspectRatio="xMidYMid meet" version="1.0"><defs><g/></defs><g fill="#000000" fill-opacity="1"><g transform="translate(62.757249, 329.575913)"><g><path d="M 221.671875 -227.46875 C 216.140625 -230.507812 209.4375 -233.410156 201.5625 -236.171875 C 193.695312 -238.929688 183.269531 -240.3125 170.28125 -240.3125 C 153.4375 -240.3125 139.070312 -237.066406 127.1875 -230.578125 C 115.3125 -224.085938 105.785156 -215.453125 98.609375 -204.671875 C 91.429688 -193.898438 86.597656 -182.09375 84.109375 -169.25 C 81.617188 -156.40625 81.617188 -143.5625 84.109375 -130.71875 C 86.597656 -117.875 91.429688 -106.066406 98.609375 -95.296875 C 105.785156 -84.523438 115.3125 -75.890625 127.1875 -69.390625 C 139.070312 -62.898438 153.4375 -59.65625 170.28125 -59.65625 C 183.269531 -59.65625 194.664062 -61.175781 204.46875 -64.21875 C 214.269531 -67.257812 221.9375 -70.160156 227.46875 -72.921875 L 235.34375 -11.59375 C 226.226562 -8.007812 215.726562 -5.039062 203.84375 -2.6875 C 191.96875 -0.34375 180.78125 0.828125 170.28125 0.828125 C 145.144531 0.828125 123.1875 -3.382812 104.40625 -11.8125 C 85.625 -20.238281 69.945312 -31.628906 57.375 -45.984375 C 44.8125 -60.347656 35.421875 -76.4375 29.203125 -94.25 C 22.992188 -112.070312 19.890625 -130.507812 19.890625 -149.5625 C 19.890625 -168.625 22.992188 -187.0625 29.203125 -204.875 C 35.421875 -222.695312 44.8125 -238.789062 57.375 -253.15625 C 69.945312 -267.519531 85.625 -278.910156 104.40625 -287.328125 C 123.1875 -295.753906 145.144531 -299.96875 170.28125 -299.96875 C 191.832031 -299.96875 211.304688 -296.101562 228.703125 -288.375 Z M 221.671875 -227.46875 "/></g></g></g></svg>