<svg width="360" height="360" viewBox="0 0 360 360" fill="none" xmlns="http://www.w3.org/2000/svg">
<path fill-rule="evenodd" clip-rule="evenodd" d="M180 279C234.676 279 279 234.676 279 180C279 125.324 234.676 81 180 81C125.324 81 81 125.324 81 180C81 234.676 125.324 279 180 279ZM180 360C279.411 360 360 279.411 360 180C360 80.5887 279.411 0 180 0C80.5887 0 0 80.5887 0 180C0 279.411 80.5887 360 180 360Z" fill="black"/>
<path d="M220 180C220 202.091 202.091 220 180 220C157.909 220 140 202.091 140 180C140 157.909 157.909 140 180 140C202.091 140 220 157.909 220 180Z" fill="black"/>
</svg>
