<svg xmlns="http://www.w3.org/2000/svg" xmlns:xlink="http://www.w3.org/1999/xlink" width="500" zoomAndPan="magnify" viewBox="0 0 375 374.999991" height="500" preserveAspectRatio="xMidYMid meet" version="1.0"><defs><g/></defs><g fill="#000000" fill-opacity="1"><g transform="translate(77.881015, 329.575913)"><g><path d="M 19.46875 -19.0625 L 26.9375 -81.203125 C 38.257812 -73.191406 49.515625 -67.457031 60.703125 -64 C 71.890625 -60.550781 82.039062 -58.550781 91.15625 -58 C 100.269531 -57.445312 107.035156 -57.3125 111.453125 -57.59375 C 120.296875 -58.144531 127.820312 -61.25 134.03125 -66.90625 C 140.25 -72.570312 142.941406 -79.410156 142.109375 -87.421875 C 141.554688 -95.984375 138.378906 -102.472656 132.578125 -106.890625 C 126.785156 -111.316406 119.742188 -114.910156 111.453125 -117.671875 C 95.984375 -123.472656 81.550781 -130.171875 68.15625 -137.765625 C 54.757812 -145.359375 43.984375 -154.816406 35.828125 -166.140625 C 27.679688 -177.472656 23.609375 -191.425781 23.609375 -208 C 23.609375 -224.570312 27.128906 -239.554688 34.171875 -252.953125 C 41.222656 -266.347656 51.097656 -277.050781 63.796875 -285.0625 C 76.503906 -293.070312 91.007812 -297.488281 107.3125 -298.3125 C 115.039062 -298.863281 124.5 -298.585938 135.6875 -297.484375 C 146.875 -296.378906 162 -292.515625 181.0625 -285.890625 L 173.609375 -228.703125 C 157.304688 -235.335938 144.320312 -239.132812 134.65625 -240.09375 C 124.988281 -241.0625 117.804688 -241.410156 113.109375 -241.140625 C 102.609375 -240.585938 94.941406 -236.992188 90.109375 -230.359375 C 85.273438 -223.734375 83.132812 -216.28125 83.6875 -208 C 84.519531 -199.707031 88.113281 -193.421875 94.46875 -189.140625 C 100.820312 -184.859375 108.28125 -181.195312 116.84375 -178.15625 C 132.3125 -172.632812 146.535156 -165.796875 159.515625 -157.640625 C 172.492188 -149.492188 182.921875 -139.691406 190.796875 -128.234375 C 198.671875 -116.773438 202.609375 -103.171875 202.609375 -87.421875 C 202.609375 -71.128906 199.015625 -56.351562 191.828125 -43.09375 C 184.648438 -29.832031 174.363281 -19.195312 160.96875 -11.1875 C 147.570312 -3.175781 131.617188 1.378906 113.109375 2.484375 C 107.585938 2.765625 100.0625 2.554688 90.53125 1.859375 C 81 1.171875 70.15625 -0.757812 58 -3.9375 C 45.851562 -7.113281 33.007812 -12.15625 19.46875 -19.0625 Z M 19.46875 -19.0625 "/></g></g></g></svg>
