<svg xmlns="http://www.w3.org/2000/svg" xmlns:xlink="http://www.w3.org/1999/xlink" width="500" zoomAndPan="magnify" viewBox="0 0 375 374.999991" height="500" preserveAspectRatio="xMidYMid meet" version="1.0"><defs><g/></defs><g fill="#000000" fill-opacity="1"><g transform="translate(48.480936, 329.575913)"><g><path d="M 245.703125 -103.171875 C 245.703125 -83.003906 241.832031 -65.738281 234.09375 -51.375 C 226.363281 -37.007812 216.144531 -25.546875 203.4375 -16.984375 C 190.726562 -8.421875 176.773438 -2.691406 161.578125 0.203125 C 146.390625 3.109375 131.128906 3.109375 115.796875 0.203125 C 100.472656 -2.691406 86.457031 -8.421875 73.75 -16.984375 C 61.039062 -25.546875 50.816406 -37.007812 43.078125 -51.375 C 35.347656 -65.738281 31.484375 -83.003906 31.484375 -103.171875 L 31.484375 -296.25 L 90.734375 -296.25 L 90.734375 -103.578125 C 90.734375 -91.148438 93.976562 -81.207031 100.46875 -73.75 C 106.96875 -66.289062 114.976562 -61.316406 124.5 -58.828125 C 134.03125 -56.347656 143.5625 -56.347656 153.09375 -58.828125 C 162.625 -61.316406 170.632812 -66.289062 177.125 -73.75 C 183.613281 -81.207031 186.859375 -91.148438 186.859375 -103.578125 L 186.859375 -296.25 L 245.703125 -296.25 Z M 245.703125 -103.171875 "/></g></g></g></svg>