<svg xmlns="http://www.w3.org/2000/svg" xmlns:xlink="http://www.w3.org/1999/xlink" width="500" zoomAndPan="magnify" viewBox="0 0 375 374.999991" height="500" preserveAspectRatio="xMidYMid meet" version="1.2"><defs/><g id="619bad7484"><g style="fill:#000000;fill-opacity:1;"><g transform="translate(12.040483, 329.575913)"><path style="stroke:none" d="M 175.671875 4.140625 C 150.265625 4.140625 127.960938 -0.140625 108.765625 -8.703125 C 89.566406 -17.265625 73.613281 -28.796875 60.90625 -43.296875 C 48.195312 -57.796875 38.664062 -74.160156 32.3125 -92.390625 C 25.957031 -110.617188 22.78125 -129.332031 22.78125 -148.53125 C 22.78125 -167.726562 25.957031 -186.441406 32.3125 -204.671875 C 38.664062 -222.910156 48.195312 -239.28125 60.90625 -253.78125 C 73.613281 -268.28125 89.566406 -279.8125 108.765625 -288.375 C 127.960938 -296.9375 150.265625 -301.21875 175.671875 -301.21875 C 201.085938 -301.21875 223.394531 -296.9375 242.59375 -288.375 C 261.789062 -279.8125 277.738281 -268.28125 290.4375 -253.78125 C 303.144531 -239.28125 312.675781 -222.910156 319.03125 -204.671875 C 325.382812 -186.441406 328.5625 -167.726562 328.5625 -148.53125 C 328.5625 -129.332031 325.382812 -110.617188 319.03125 -92.390625 C 312.675781 -74.160156 303.144531 -57.796875 290.4375 -43.296875 C 277.738281 -28.796875 261.789062 -17.265625 242.59375 -8.703125 C 223.394531 -0.140625 201.085938 4.140625 175.671875 4.140625 Z M 175.671875 -57.171875 C 192.523438 -57.171875 207.023438 -60.484375 219.171875 -67.109375 C 231.328125 -73.742188 240.992188 -82.515625 248.171875 -93.421875 C 255.359375 -104.335938 260.191406 -116.285156 262.671875 -129.265625 C 265.160156 -142.253906 265.160156 -155.238281 262.671875 -168.21875 C 260.191406 -181.195312 255.359375 -193.140625 248.171875 -204.046875 C 240.992188 -214.960938 231.328125 -223.734375 219.171875 -230.359375 C 207.023438 -236.992188 192.523438 -240.3125 175.671875 -240.3125 C 158.828125 -240.3125 144.328125 -236.992188 132.171875 -230.359375 C 120.015625 -223.734375 110.34375 -214.960938 103.15625 -204.046875 C 95.976562 -193.140625 91.144531 -181.195312 88.65625 -168.21875 C 86.175781 -155.238281 86.175781 -142.253906 88.65625 -129.265625 C 91.144531 -116.285156 95.976562 -104.335938 103.15625 -93.421875 C 110.34375 -82.515625 120.015625 -73.742188 132.171875 -67.109375 C 144.328125 -60.484375 158.828125 -57.171875 175.671875 -57.171875 Z M 175.671875 -57.171875 "/></g></g></g></svg>