<svg xmlns="http://www.w3.org/2000/svg" xmlns:xlink="http://www.w3.org/1999/xlink" width="500"
    zoomAndPan="magnify" viewBox="0 0 375 374.999991" height="500"
    preserveAspectRatio="xMidYMid meet" version="1.0">
    <defs>
        <g />
        <clipPath id="3483c8ee52">
            <path
                d="M 100.007812 77.449219 L 274.757812 77.449219 L 274.757812 297.199219 L 100.007812 297.199219 Z M 100.007812 77.449219 "
                clip-rule="nonzero" />
        </clipPath>
        <clipPath id="48d72612a6">
            <path
                d="M 158.519531 122.738281 L 182 122.738281 L 182 222.488281 L 158.519531 222.488281 Z M 158.519531 122.738281 "
                clip-rule="nonzero" />
        </clipPath>
        <clipPath id="98bc579290">
            <path
                d="M 184 122.738281 L 207 122.738281 L 207 222.488281 L 184 222.488281 Z M 184 122.738281 "
                clip-rule="nonzero" />
        </clipPath>
        <clipPath id="c0354a9f5d">
            <path
                d="M 209 170 L 232.769531 170 L 232.769531 222.488281 L 209 222.488281 Z M 209 170 "
                clip-rule="nonzero" />
        </clipPath>
    </defs>
    <g clip-path="url(#3483c8ee52)">
        <path fill="#000000"
            d="M 272.871094 90.742188 L 274.765625 90.742188 L 274.765625 77.449219 L 261.472656 77.449219 L 261.472656 79.339844 C 261.472656 82.464844 258.917969 85.019531 255.792969 85.019531 C 252.667969 85.019531 250.113281 82.464844 250.113281 79.339844 L 250.113281 77.449219 L 238.710938 77.449219 L 238.710938 79.339844 C 238.710938 82.464844 236.160156 85.019531 233.035156 85.019531 C 229.910156 85.019531 227.355469 82.464844 227.355469 79.339844 L 227.355469 77.449219 L 215.953125 77.449219 L 215.953125 79.339844 C 215.953125 82.464844 213.402344 85.019531 210.273438 85.019531 C 207.148438 85.019531 204.597656 82.464844 204.597656 79.339844 L 204.597656 77.449219 L 193.195312 77.449219 L 193.195312 79.339844 C 193.195312 82.464844 190.640625 85.019531 187.515625 85.019531 C 184.390625 85.019531 181.839844 82.464844 181.839844 79.339844 L 181.839844 77.449219 L 170.4375 77.449219 L 170.4375 79.339844 C 170.4375 82.464844 167.882812 85.019531 164.757812 85.019531 C 161.632812 85.019531 159.078125 82.464844 159.078125 79.339844 L 159.078125 77.449219 L 147.679688 77.449219 L 147.679688 79.339844 C 147.679688 82.464844 145.125 85.019531 142 85.019531 C 138.875 85.019531 136.320312 82.464844 136.320312 79.339844 L 136.320312 77.449219 L 124.875 77.449219 L 124.875 79.339844 C 124.875 82.464844 122.324219 85.019531 119.195312 85.019531 C 116.070312 85.019531 113.519531 82.464844 113.519531 79.339844 L 113.519531 77.449219 L 100.222656 77.449219 L 100.222656 90.742188 L 102.117188 90.742188 C 105.242188 90.742188 107.796875 93.296875 107.796875 96.421875 C 107.796875 99.546875 105.242188 102.097656 102.117188 102.097656 L 100.222656 102.097656 L 100.222656 113.5 L 102.117188 113.5 C 105.242188 113.5 107.796875 116.054688 107.796875 119.179688 C 107.796875 122.304688 105.242188 124.859375 102.117188 124.859375 L 100.222656 124.859375 L 100.222656 136.257812 L 102.117188 136.257812 C 105.242188 136.257812 107.796875 138.8125 107.796875 141.9375 C 107.796875 145.0625 105.242188 147.617188 102.117188 147.617188 L 100.222656 147.617188 L 100.222656 159.015625 L 102.117188 159.015625 C 105.242188 159.015625 107.796875 161.570312 107.796875 164.695312 C 107.796875 167.820312 105.242188 170.375 102.117188 170.375 L 100.222656 170.375 L 100.222656 181.777344 L 102.117188 181.777344 C 105.242188 181.777344 107.796875 184.328125 107.796875 187.453125 C 107.796875 190.578125 105.242188 193.132812 102.117188 193.132812 L 100.222656 193.132812 L 100.222656 204.535156 L 102.117188 204.535156 C 105.242188 204.535156 107.796875 207.085938 107.796875 210.214844 C 107.796875 213.339844 105.242188 215.890625 102.117188 215.890625 L 100.222656 215.890625 L 100.222656 227.292969 L 102.117188 227.292969 C 105.242188 227.292969 107.796875 229.847656 107.796875 232.972656 C 107.796875 236.097656 105.242188 238.648438 102.117188 238.648438 L 100.222656 238.648438 L 100.222656 250.050781 L 102.117188 250.050781 C 105.242188 250.050781 107.796875 252.605469 107.796875 255.730469 C 107.796875 258.855469 105.242188 261.410156 102.117188 261.410156 L 100.222656 261.410156 L 100.222656 272.898438 L 102.117188 272.898438 C 105.242188 272.898438 107.796875 275.449219 107.796875 278.578125 C 107.796875 281.703125 105.242188 284.253906 102.117188 284.253906 L 100.222656 284.253906 L 100.222656 297.550781 L 113.519531 297.550781 L 113.519531 295.65625 C 113.519531 292.53125 116.070312 289.976562 119.195312 289.976562 C 122.324219 289.976562 124.875 292.53125 124.875 295.65625 L 124.875 297.550781 L 136.277344 297.550781 L 136.277344 295.65625 C 136.277344 292.53125 138.832031 289.976562 141.957031 289.976562 C 145.082031 289.976562 147.632812 292.53125 147.632812 295.65625 L 147.632812 297.550781 L 159.035156 297.550781 L 159.035156 295.65625 C 159.035156 292.53125 161.589844 289.976562 164.714844 289.976562 C 167.839844 289.976562 170.394531 292.53125 170.394531 295.65625 L 170.394531 297.550781 L 181.792969 297.550781 L 181.792969 295.65625 C 181.792969 292.53125 184.347656 289.976562 187.472656 289.976562 C 190.597656 289.976562 193.152344 292.53125 193.152344 295.65625 L 193.152344 297.550781 L 204.550781 297.550781 L 204.550781 295.65625 C 204.550781 292.53125 207.105469 289.976562 210.230469 289.976562 C 213.355469 289.976562 215.910156 292.53125 215.910156 295.65625 L 215.910156 297.550781 L 227.3125 297.550781 L 227.3125 295.65625 C 227.3125 292.53125 229.863281 289.976562 232.988281 289.976562 C 236.113281 289.976562 238.667969 292.53125 238.667969 295.65625 L 238.667969 297.550781 L 250.070312 297.550781 L 250.070312 295.65625 C 250.070312 292.53125 252.621094 289.976562 255.75 289.976562 C 258.875 289.976562 261.425781 292.53125 261.425781 295.65625 L 261.425781 297.550781 L 274.722656 297.550781 L 274.722656 284.253906 L 272.828125 284.253906 C 269.703125 284.253906 267.148438 281.703125 267.148438 278.578125 C 267.148438 275.449219 269.703125 272.898438 272.828125 272.898438 L 274.722656 272.898438 L 274.722656 261.496094 L 272.828125 261.496094 C 269.703125 261.496094 267.148438 258.945312 267.148438 255.816406 C 267.148438 252.691406 269.703125 250.140625 272.828125 250.140625 L 274.722656 250.140625 L 274.722656 238.738281 L 272.828125 238.738281 C 269.703125 238.738281 267.148438 236.183594 267.148438 233.058594 C 267.148438 229.933594 269.703125 227.382812 272.828125 227.382812 L 274.722656 227.382812 L 274.722656 215.980469 L 272.828125 215.980469 C 269.703125 215.980469 267.148438 213.425781 267.148438 210.300781 C 267.148438 207.175781 269.703125 204.621094 272.828125 204.621094 L 274.722656 204.621094 L 274.722656 193.222656 L 272.828125 193.222656 C 269.703125 193.222656 267.148438 190.667969 267.148438 187.542969 C 267.148438 184.417969 269.703125 181.863281 272.828125 181.863281 L 274.722656 181.863281 L 274.722656 170.460938 L 272.828125 170.460938 C 269.703125 170.460938 267.148438 167.910156 267.148438 164.785156 C 267.148438 161.660156 269.703125 159.105469 272.828125 159.105469 L 274.722656 159.105469 L 274.722656 147.703125 L 272.828125 147.703125 C 269.703125 147.703125 267.148438 145.152344 267.148438 142.027344 C 267.148438 138.898438 269.703125 136.347656 272.828125 136.347656 L 274.722656 136.347656 L 274.722656 124.945312 L 272.828125 124.945312 C 269.703125 124.945312 267.148438 122.390625 267.148438 119.265625 C 267.148438 116.140625 269.703125 113.589844 272.828125 113.589844 L 274.722656 113.589844 L 274.722656 102.097656 L 272.828125 102.097656 C 269.703125 102.097656 267.148438 99.546875 267.148438 96.421875 C 267.148438 93.296875 269.746094 90.742188 272.871094 90.742188 Z M 270.980469 105.707031 L 270.980469 109.890625 C 266.664062 110.769531 263.40625 114.601562 263.40625 119.179688 C 263.40625 123.757812 266.664062 127.585938 270.980469 128.46875 L 270.980469 132.648438 C 266.664062 133.53125 263.40625 137.359375 263.40625 141.9375 C 263.40625 146.515625 266.664062 150.34375 270.980469 151.226562 L 270.980469 155.40625 C 266.664062 156.289062 263.40625 160.117188 263.40625 164.695312 C 263.40625 169.273438 266.664062 173.105469 270.980469 173.984375 L 270.980469 178.167969 C 266.664062 179.046875 263.40625 182.875 263.40625 187.453125 C 263.40625 192.03125 266.664062 195.863281 270.980469 196.742188 L 270.980469 200.925781 C 266.664062 201.804688 263.40625 205.636719 263.40625 210.214844 C 263.40625 214.792969 266.664062 218.621094 270.980469 219.5 L 270.980469 223.683594 C 266.664062 224.5625 263.40625 228.394531 263.40625 232.972656 C 263.40625 237.550781 266.664062 241.378906 270.980469 242.257812 L 270.980469 246.441406 C 266.664062 247.320312 263.40625 251.152344 263.40625 255.730469 C 263.40625 260.308594 266.664062 264.136719 270.980469 265.019531 L 270.980469 269.199219 C 266.664062 270.082031 263.40625 273.910156 263.40625 278.488281 C 263.40625 283.066406 266.664062 286.894531 270.980469 287.777344 L 270.980469 293.675781 L 265.082031 293.675781 C 264.199219 289.363281 260.371094 286.105469 255.792969 286.105469 C 251.214844 286.105469 247.382812 289.363281 246.503906 293.675781 L 242.320312 293.675781 C 241.441406 289.363281 237.613281 286.105469 233.035156 286.105469 C 228.457031 286.105469 224.625 289.363281 223.746094 293.675781 L 219.5625 293.675781 C 218.683594 289.363281 214.851562 286.105469 210.273438 286.105469 C 205.695312 286.105469 201.867188 289.363281 200.988281 293.675781 L 196.804688 293.675781 C 195.925781 289.363281 192.09375 286.105469 187.515625 286.105469 C 182.9375 286.105469 179.109375 289.363281 178.226562 293.675781 L 174.046875 293.675781 C 173.167969 289.363281 169.335938 286.105469 164.757812 286.105469 C 160.179688 286.105469 156.351562 289.363281 155.46875 293.675781 L 151.289062 293.675781 C 150.40625 289.363281 146.578125 286.105469 142 286.105469 C 137.421875 286.105469 133.59375 289.363281 132.710938 293.675781 L 128.53125 293.675781 C 127.648438 289.363281 123.820312 286.105469 119.242188 286.105469 C 114.664062 286.105469 110.789062 289.449219 109.910156 293.761719 L 104.011719 293.761719 L 104.011719 287.863281 C 108.324219 286.984375 111.582031 283.15625 111.582031 278.578125 C 111.582031 274 108.324219 270.167969 104.011719 269.289062 L 104.011719 265.105469 C 108.324219 264.226562 111.582031 260.394531 111.582031 255.816406 C 111.582031 251.238281 108.324219 247.410156 104.011719 246.53125 L 104.011719 242.347656 C 108.324219 241.46875 111.582031 237.636719 111.582031 233.058594 C 111.582031 228.480469 108.324219 224.652344 104.011719 223.769531 L 104.011719 219.589844 C 108.324219 218.707031 111.582031 214.878906 111.582031 210.300781 C 111.582031 205.722656 108.324219 201.894531 104.011719 201.011719 L 104.011719 196.832031 C 108.324219 195.949219 111.582031 192.121094 111.582031 187.542969 C 111.582031 182.964844 108.324219 179.132812 104.011719 178.253906 L 104.011719 174.070312 C 108.324219 173.191406 111.582031 169.363281 111.582031 164.785156 C 111.582031 160.207031 108.324219 156.375 104.011719 155.496094 L 104.011719 151.3125 C 108.324219 150.433594 111.582031 146.605469 111.582031 142.027344 C 111.582031 137.449219 108.324219 133.617188 104.011719 132.738281 L 104.011719 128.554688 C 108.324219 127.675781 111.582031 123.84375 111.582031 119.265625 C 111.582031 114.6875 108.324219 110.769531 104.011719 109.890625 L 104.011719 105.707031 C 108.324219 104.828125 111.582031 101 111.582031 96.421875 C 111.582031 91.84375 108.324219 88.011719 104.011719 87.132812 L 104.011719 81.234375 L 109.910156 81.234375 C 110.789062 85.546875 114.617188 88.804688 119.195312 88.804688 C 123.773438 88.804688 127.605469 85.546875 128.484375 81.234375 L 132.667969 81.234375 C 133.546875 85.546875 137.378906 88.804688 141.957031 88.804688 C 146.535156 88.804688 150.363281 85.546875 151.242188 81.234375 L 155.425781 81.234375 C 156.304688 85.546875 160.136719 88.804688 164.714844 88.804688 C 169.292969 88.804688 173.121094 85.546875 174.003906 81.234375 L 178.183594 81.234375 C 179.066406 85.546875 182.894531 88.804688 187.472656 88.804688 C 192.050781 88.804688 195.878906 85.546875 196.761719 81.234375 L 200.941406 81.234375 C 201.824219 85.546875 205.652344 88.804688 210.230469 88.804688 C 214.808594 88.804688 218.640625 85.546875 219.519531 81.234375 L 223.703125 81.234375 C 224.582031 85.546875 228.410156 88.804688 232.988281 88.804688 C 237.566406 88.804688 241.398438 85.546875 242.277344 81.234375 L 246.460938 81.234375 C 247.339844 85.546875 251.171875 88.804688 255.75 88.804688 C 260.328125 88.804688 264.15625 85.546875 265.035156 81.234375 L 270.933594 81.234375 L 270.933594 87.132812 C 266.621094 88.011719 263.363281 91.84375 263.363281 96.421875 C 263.363281 101 266.664062 104.828125 270.980469 105.707031 Z M 122.984375 274.789062 L 252.007812 274.789062 L 252.007812 100.207031 L 122.984375 100.207031 Z M 126.769531 103.992188 L 248.222656 103.992188 L 248.222656 270.960938 L 126.769531 270.960938 Z M 126.769531 103.992188 "
            fill-opacity="1" fill-rule="nonzero" />
    </g>
    <path fill="#ffffff"
        d="M 126.769531 201.449219 L 248.222656 201.449219 L 248.222656 207.863281 L 126.769531 207.863281 Z M 126.769531 201.449219 "
        fill-opacity="1" fill-rule="nonzero" />
    <path fill="#ffffff"
        d="M 195.480469 124.503906 L 189.710938 134.121094 L 201.253906 134.121094 Z M 195.480469 124.503906 "
        fill-opacity="1" fill-rule="nonzero" />
    <path fill="#ffffff"
        d="M 227.542969 172.59375 L 214.71875 172.59375 C 212.945312 172.59375 211.511719 174.03125 211.511719 175.800781 L 211.511719 193.433594 L 230.75 193.433594 L 230.75 175.800781 C 230.75 174.03125 229.3125 172.59375 227.542969 172.59375 Z M 227.542969 172.59375 "
        fill-opacity="1" fill-rule="nonzero" />
    <path fill="#ffffff"
        d="M 211.511719 217.480469 C 211.511719 219.253906 212.945312 220.6875 214.71875 220.6875 L 227.542969 220.6875 C 229.3125 220.6875 230.75 219.253906 230.75 217.480469 L 230.75 199.847656 L 211.511719 199.847656 Z M 211.511719 217.480469 "
        fill-opacity="1" fill-rule="nonzero" />
    <g clip-path="url(#48d72612a6)">
        <path fill="#000000"
            d="M 179.449219 222.289062 C 180.335938 222.289062 181.054688 221.570312 181.054688 220.6875 L 181.054688 124.503906 C 181.054688 123.617188 180.335938 122.898438 179.449219 122.898438 L 160.214844 122.898438 C 159.328125 122.898438 158.609375 123.617188 158.609375 124.503906 L 158.609375 220.6875 C 158.609375 221.570312 159.328125 222.289062 160.214844 222.289062 Z M 177.847656 126.105469 L 177.847656 219.082031 L 161.816406 219.082031 L 161.816406 215.878906 L 174.640625 215.878906 L 174.640625 212.671875 L 161.816406 212.671875 L 161.816406 209.464844 L 168.230469 209.464844 L 168.230469 206.257812 L 161.816406 206.257812 L 161.816406 203.054688 L 174.640625 203.054688 L 174.640625 199.847656 L 161.816406 199.847656 L 161.816406 196.640625 L 168.230469 196.640625 L 168.230469 193.433594 L 161.816406 193.433594 L 161.816406 190.226562 L 174.640625 190.226562 L 174.640625 187.023438 L 161.816406 187.023438 L 161.816406 183.816406 L 168.230469 183.816406 L 168.230469 180.609375 L 161.816406 180.609375 L 161.816406 177.402344 L 174.640625 177.402344 L 174.640625 174.199219 L 161.816406 174.199219 L 161.816406 170.992188 L 168.230469 170.992188 L 168.230469 167.785156 L 161.816406 167.785156 L 161.816406 164.578125 L 174.640625 164.578125 L 174.640625 161.375 L 161.816406 161.375 L 161.816406 158.167969 L 168.230469 158.167969 L 168.230469 154.960938 L 161.816406 154.960938 L 161.816406 151.753906 L 174.640625 151.753906 L 174.640625 148.546875 L 161.816406 148.546875 L 161.816406 145.34375 L 168.230469 145.34375 L 168.230469 142.136719 L 161.816406 142.136719 L 161.816406 138.929688 L 174.640625 138.929688 L 174.640625 135.722656 L 161.816406 135.722656 L 161.816406 132.519531 L 168.230469 132.519531 L 168.230469 129.3125 L 161.816406 129.3125 L 161.816406 126.105469 Z M 177.847656 126.105469 "
            fill-opacity="1" fill-rule="nonzero" />
    </g>
    <g clip-path="url(#98bc579290)">
        <path fill="#000000"
            d="M 206.703125 217.480469 L 206.703125 140.53125 C 206.703125 140.242188 206.625 139.957031 206.472656 139.707031 L 196.855469 123.675781 C 196.277344 122.710938 194.683594 122.710938 194.105469 123.675781 L 184.488281 139.707031 C 184.339844 139.957031 184.261719 140.242188 184.261719 140.53125 L 184.261719 217.480469 C 184.261719 220.132812 186.417969 222.289062 189.070312 222.289062 L 201.894531 222.289062 C 204.546875 222.289062 206.703125 220.132812 206.703125 217.480469 Z M 203.496094 199.847656 L 197.085938 199.847656 L 197.085938 146.007812 L 200.289062 142.800781 L 203.496094 146.007812 Z M 193.878906 199.847656 L 187.464844 199.847656 L 187.464844 146.007812 L 190.671875 142.800781 L 193.878906 146.007812 Z M 187.464844 203.054688 L 203.496094 203.054688 L 203.496094 206.257812 L 187.464844 206.257812 Z M 195.480469 127.617188 L 198.421875 132.519531 L 192.542969 132.519531 Z M 190.617188 135.722656 L 200.34375 135.722656 L 203.496094 140.976562 L 203.496094 141.472656 L 201.425781 139.398438 C 200.796875 138.773438 199.785156 138.773438 199.15625 139.398438 L 195.480469 143.074219 L 191.804688 139.398438 C 191.179688 138.773438 190.164062 138.773438 189.539062 139.398438 L 187.464844 141.472656 L 187.464844 140.976562 Z M 187.464844 217.480469 L 187.464844 209.464844 L 203.496094 209.464844 L 203.496094 217.480469 C 203.496094 218.363281 202.777344 219.082031 201.894531 219.082031 L 189.070312 219.082031 C 188.183594 219.082031 187.464844 218.363281 187.464844 217.480469 Z M 187.464844 217.480469 "
            fill-opacity="1" fill-rule="nonzero" />
    </g>
    <g clip-path="url(#c0354a9f5d)">
        <path fill="#000000"
            d="M 214.71875 222.289062 L 227.542969 222.289062 C 230.195312 222.289062 232.351562 220.132812 232.351562 217.480469 L 232.351562 175.800781 C 232.351562 173.148438 230.195312 170.992188 227.542969 170.992188 L 214.71875 170.992188 C 212.066406 170.992188 209.910156 173.148438 209.910156 175.800781 L 209.910156 217.480469 C 209.910156 220.132812 212.066406 222.289062 214.71875 222.289062 Z M 227.542969 219.082031 L 214.71875 219.082031 C 213.832031 219.082031 213.117188 218.363281 213.117188 217.480469 L 213.117188 201.449219 L 229.144531 201.449219 L 229.144531 217.480469 C 229.144531 218.363281 228.429688 219.082031 227.542969 219.082031 Z M 213.117188 198.242188 L 213.117188 195.039062 L 229.144531 195.039062 L 229.144531 198.242188 Z M 214.71875 174.199219 L 227.542969 174.199219 C 228.429688 174.199219 229.144531 174.917969 229.144531 175.800781 L 229.144531 191.832031 L 213.117188 191.832031 L 213.117188 175.800781 C 213.117188 174.917969 213.832031 174.199219 214.71875 174.199219 Z M 214.71875 174.199219 "
            fill-opacity="1" fill-rule="nonzero" />
    </g>
    <g fill="#000000" fill-opacity="1">
        <g transform="translate(158.520668, 242.575795)">
            <g>
                <path
                    d="M 3.75 0 L 3.75 -11.625 L 0.421875 -11.625 L 0.421875 -14.203125 L 9.921875 -14.203125 L 9.921875 -11.625 L 6.609375 -11.625 L 6.609375 0 Z M 3.75 0 " />
            </g>
        </g>
    </g>
    <g fill="#000000" fill-opacity="1">
        <g transform="translate(168.880632, 242.575795)">
            <g>
                <path
                    d="M 1.359375 0 L 1.359375 -14.203125 L 5.640625 -14.203125 C 6.679688 -14.203125 7.554688 -14.007812 8.265625 -13.625 C 8.972656 -13.25 9.507812 -12.742188 9.875 -12.109375 C 10.25 -11.472656 10.4375 -10.765625 10.4375 -9.984375 C 10.4375 -9.117188 10.238281 -8.363281 9.84375 -7.71875 C 9.457031 -7.070312 8.941406 -6.570312 8.296875 -6.21875 L 11.65625 0 L 8.5 0 L 5.734375 -5.5625 L 4.21875 -5.5625 L 4.21875 0 Z M 4.21875 -7.96875 L 5.5625 -7.96875 C 6.070312 -7.96875 6.519531 -8.128906 6.90625 -8.453125 C 7.300781 -8.773438 7.5 -9.25 7.5 -9.875 C 7.5 -10.445312 7.3125 -10.894531 6.9375 -11.21875 C 6.570312 -11.550781 6.066406 -11.71875 5.421875 -11.71875 L 4.21875 -11.71875 Z M 4.21875 -7.96875 " />
            </g>
        </g>
    </g>
    <g fill="#000000" fill-opacity="1">
        <g transform="translate(180.740859, 242.575795)">
            <g>
                <path
                    d="M 7.984375 0.265625 C 6.890625 0.265625 5.894531 0.078125 5 -0.296875 C 4.101562 -0.671875 3.328125 -1.191406 2.671875 -1.859375 C 2.015625 -2.523438 1.503906 -3.300781 1.140625 -4.1875 C 0.785156 -5.082031 0.609375 -6.050781 0.609375 -7.09375 C 0.609375 -8.132812 0.785156 -9.097656 1.140625 -9.984375 C 1.503906 -10.867188 2.015625 -11.648438 2.671875 -12.328125 C 3.328125 -13.003906 4.101562 -13.523438 5 -13.890625 C 5.894531 -14.265625 6.890625 -14.453125 7.984375 -14.453125 C 9.085938 -14.453125 10.085938 -14.265625 10.984375 -13.890625 C 11.878906 -13.523438 12.65625 -13.003906 13.3125 -12.328125 C 13.96875 -11.648438 14.472656 -10.867188 14.828125 -9.984375 C 15.191406 -9.097656 15.375 -8.132812 15.375 -7.09375 C 15.375 -6.050781 15.191406 -5.082031 14.828125 -4.1875 C 14.472656 -3.300781 13.96875 -2.523438 13.3125 -1.859375 C 12.65625 -1.191406 11.878906 -0.671875 10.984375 -0.296875 C 10.085938 0.078125 9.085938 0.265625 7.984375 0.265625 Z M 7.984375 -11.78125 C 7.140625 -11.78125 6.382812 -11.578125 5.71875 -11.171875 C 5.050781 -10.765625 4.53125 -10.207031 4.15625 -9.5 C 3.78125 -8.789062 3.59375 -7.988281 3.59375 -7.09375 C 3.59375 -6.1875 3.78125 -5.378906 4.15625 -4.671875 C 4.53125 -3.972656 5.050781 -3.421875 5.71875 -3.015625 C 6.382812 -2.609375 7.140625 -2.40625 7.984375 -2.40625 C 8.835938 -2.40625 9.59375 -2.609375 10.25 -3.015625 C 10.914062 -3.421875 11.4375 -3.972656 11.8125 -4.671875 C 12.195312 -5.378906 12.390625 -6.1875 12.390625 -7.09375 C 12.390625 -7.988281 12.195312 -8.789062 11.8125 -9.5 C 11.4375 -10.207031 10.914062 -10.765625 10.25 -11.171875 C 9.59375 -11.578125 8.835938 -11.78125 7.984375 -11.78125 Z M 7.984375 -11.78125 " />
            </g>
        </g>
    </g>
    <g fill="#000000" fill-opacity="1">
        <g transform="translate(196.716688, 242.575795)">
            <g>
                <path
                    d="M 4.5 0 L 4.5 -6.484375 L 0.140625 -14.203125 L 3.359375 -14.203125 L 5.921875 -9.109375 L 8.484375 -14.203125 L 11.703125 -14.203125 L 7.34375 -6.484375 L 7.34375 0 Z M 4.5 0 " />
            </g>
        </g>
    </g>
    <g fill="#000000" fill-opacity="1">
        <g transform="translate(208.556643, 242.575795)">
            <g>
                <path
                    d="M 8.015625 0.265625 C 6.898438 0.265625 5.890625 0.078125 4.984375 -0.296875 C 4.078125 -0.671875 3.296875 -1.191406 2.640625 -1.859375 C 1.984375 -2.523438 1.476562 -3.300781 1.125 -4.1875 C 0.78125 -5.082031 0.609375 -6.050781 0.609375 -7.09375 C 0.609375 -8.132812 0.789062 -9.101562 1.15625 -10 C 1.519531 -10.894531 2.035156 -11.675781 2.703125 -12.34375 C 3.378906 -13.007812 4.164062 -13.523438 5.0625 -13.890625 C 5.957031 -14.265625 6.941406 -14.453125 8.015625 -14.453125 C 8.960938 -14.453125 9.785156 -14.320312 10.484375 -14.0625 C 11.191406 -13.800781 11.773438 -13.5 12.234375 -13.15625 L 11.421875 -10.640625 C 11.078125 -10.890625 10.601562 -11.140625 10 -11.390625 C 9.394531 -11.648438 8.734375 -11.78125 8.015625 -11.78125 C 7.160156 -11.78125 6.394531 -11.578125 5.71875 -11.171875 C 5.050781 -10.765625 4.53125 -10.207031 4.15625 -9.5 C 3.78125 -8.789062 3.59375 -7.988281 3.59375 -7.09375 C 3.59375 -6.1875 3.78125 -5.378906 4.15625 -4.671875 C 4.53125 -3.972656 5.050781 -3.421875 5.71875 -3.015625 C 6.394531 -2.609375 7.160156 -2.40625 8.015625 -2.40625 C 8.785156 -2.40625 9.476562 -2.539062 10.09375 -2.8125 C 10.71875 -3.082031 11.203125 -3.332031 11.546875 -3.5625 L 12.34375 -1.078125 C 11.925781 -0.765625 11.359375 -0.460938 10.640625 -0.171875 C 9.929688 0.117188 9.054688 0.265625 8.015625 0.265625 Z M 8.015625 0.265625 " />
            </g>
        </g>
    </g>
    <g fill="#000000" fill-opacity="1">
        <g transform="translate(221.491385, 242.575795)">
            <g>
                <path
                    d="M 1.359375 0 L 1.359375 -14.203125 L 8.65625 -14.203125 L 8.65625 -11.625 L 4.21875 -11.625 L 4.21875 -8.453125 L 8.03125 -8.453125 L 8.03125 -5.921875 L 4.21875 -5.921875 L 4.21875 -2.5625 L 8.84375 -2.5625 L 8.84375 0 Z M 1.359375 0 " />
            </g>
        </g>
    </g>
    <g fill="#000000" fill-opacity="1">
        <g transform="translate(158.520668, 261.88406)">
            <g>
                <path
                    d="M 7.96875 -14.453125 C 8.96875 -14.453125 9.835938 -14.316406 10.578125 -14.046875 C 11.328125 -13.785156 11.953125 -13.46875 12.453125 -13.09375 C 12.953125 -12.726562 13.320312 -12.398438 13.5625 -12.109375 L 11.765625 -10.234375 C 11.628906 -10.398438 11.398438 -10.601562 11.078125 -10.84375 C 10.753906 -11.09375 10.34375 -11.3125 9.84375 -11.5 C 9.351562 -11.695312 8.769531 -11.796875 8.09375 -11.796875 C 7.175781 -11.796875 6.378906 -11.585938 5.703125 -11.171875 C 5.023438 -10.753906 4.503906 -10.191406 4.140625 -9.484375 C 3.773438 -8.773438 3.59375 -7.976562 3.59375 -7.09375 C 3.59375 -6.132812 3.785156 -5.300781 4.171875 -4.59375 C 4.566406 -3.894531 5.101562 -3.351562 5.78125 -2.96875 C 6.46875 -2.59375 7.238281 -2.40625 8.09375 -2.40625 C 8.757812 -2.40625 9.328125 -2.476562 9.796875 -2.625 C 10.265625 -2.769531 10.640625 -2.929688 10.921875 -3.109375 C 11.210938 -3.296875 11.40625 -3.4375 11.5 -3.53125 L 11.5 -5.265625 L 8.796875 -5.265625 L 8.796875 -7.6875 L 14.171875 -7.6875 L 14.171875 -2.0625 C 13.671875 -1.632812 13.128906 -1.242188 12.546875 -0.890625 C 11.972656 -0.535156 11.316406 -0.253906 10.578125 -0.046875 C 9.835938 0.160156 8.96875 0.265625 7.96875 0.265625 C 6.96875 0.265625 6.019531 0.09375 5.125 -0.25 C 4.238281 -0.59375 3.457031 -1.085938 2.78125 -1.734375 C 2.101562 -2.378906 1.570312 -3.15625 1.1875 -4.0625 C 0.800781 -4.96875 0.609375 -5.976562 0.609375 -7.09375 C 0.609375 -8.113281 0.785156 -9.066406 1.140625 -9.953125 C 1.503906 -10.847656 2.015625 -11.632812 2.671875 -12.3125 C 3.328125 -12.988281 4.101562 -13.515625 5 -13.890625 C 5.894531 -14.265625 6.882812 -14.453125 7.96875 -14.453125 Z M 7.96875 -14.453125 " />
            </g>
        </g>
    </g>
    <g fill="#000000" fill-opacity="1">
        <g transform="translate(173.665266, 261.88406)">
            <g>
                <path
                    d="M 9.109375 -3.65625 L 4.28125 -3.65625 L 3.046875 0 L 0.15625 0 L 5.1875 -14.203125 L 8.1875 -14.203125 L 13.21875 0 L 10.34375 0 Z M 8.359375 -6.03125 L 6.6875 -11.140625 L 5.046875 -6.03125 Z M 8.359375 -6.03125 " />
            </g>
        </g>
    </g>
    <g fill="#000000" fill-opacity="1">
        <g transform="translate(187.046036, 261.88406)">
            <g>
                <path
                    d="M 1.359375 0 L 1.359375 -14.203125 L 5.640625 -14.203125 C 6.679688 -14.203125 7.554688 -14.007812 8.265625 -13.625 C 8.972656 -13.25 9.507812 -12.742188 9.875 -12.109375 C 10.25 -11.472656 10.4375 -10.765625 10.4375 -9.984375 C 10.4375 -9.117188 10.238281 -8.363281 9.84375 -7.71875 C 9.457031 -7.070312 8.941406 -6.570312 8.296875 -6.21875 L 11.65625 0 L 8.5 0 L 5.734375 -5.5625 L 4.21875 -5.5625 L 4.21875 0 Z M 4.21875 -7.96875 L 5.5625 -7.96875 C 6.070312 -7.96875 6.519531 -8.128906 6.90625 -8.453125 C 7.300781 -8.773438 7.5 -9.25 7.5 -9.875 C 7.5 -10.445312 7.3125 -10.894531 6.9375 -11.21875 C 6.570312 -11.550781 6.066406 -11.71875 5.421875 -11.71875 L 4.21875 -11.71875 Z M 4.21875 -7.96875 " />
            </g>
        </g>
    </g>
    <g fill="#000000" fill-opacity="1">
        <g transform="translate(198.906263, 261.88406)">
            <g>
                <path
                    d="M 1.359375 0 L 1.359375 -14.203125 L 5.640625 -14.203125 C 6.679688 -14.203125 7.554688 -14.007812 8.265625 -13.625 C 8.972656 -13.25 9.507812 -12.742188 9.875 -12.109375 C 10.25 -11.472656 10.4375 -10.765625 10.4375 -9.984375 C 10.4375 -9.117188 10.238281 -8.363281 9.84375 -7.71875 C 9.457031 -7.070312 8.941406 -6.570312 8.296875 -6.21875 L 11.65625 0 L 8.5 0 L 5.734375 -5.5625 L 4.21875 -5.5625 L 4.21875 0 Z M 4.21875 -7.96875 L 5.5625 -7.96875 C 6.070312 -7.96875 6.519531 -8.128906 6.90625 -8.453125 C 7.300781 -8.773438 7.5 -9.25 7.5 -9.875 C 7.5 -10.445312 7.3125 -10.894531 6.9375 -11.21875 C 6.570312 -11.550781 6.066406 -11.71875 5.421875 -11.71875 L 4.21875 -11.71875 Z M 4.21875 -7.96875 " />
            </g>
        </g>
    </g>
    <g fill="#000000" fill-opacity="1">
        <g transform="translate(210.76649, 261.88406)">
            <g>
                <path
                    d="M 1.359375 0 L 1.359375 -14.203125 L 8.65625 -14.203125 L 8.65625 -11.625 L 4.21875 -11.625 L 4.21875 -8.453125 L 8.03125 -8.453125 L 8.03125 -5.921875 L 4.21875 -5.921875 L 4.21875 -2.5625 L 8.84375 -2.5625 L 8.84375 0 Z M 1.359375 0 " />
            </g>
        </g>
    </g>
    <g fill="#000000" fill-opacity="1">
        <g transform="translate(220.518236, 261.88406)">
            <g>
                <path
                    d="M 3.75 0 L 3.75 -11.625 L 0.421875 -11.625 L 0.421875 -14.203125 L 9.921875 -14.203125 L 9.921875 -11.625 L 6.609375 -11.625 L 6.609375 0 Z M 3.75 0 " />
            </g>
        </g>
    </g>
    <g fill="#000000" fill-opacity="1">
        <g transform="translate(230.8782, 261.88406)">
            <g>
                <path
                    d="M 3.75 0 L 3.75 -11.625 L 0.421875 -11.625 L 0.421875 -14.203125 L 9.921875 -14.203125 L 9.921875 -11.625 L 6.609375 -11.625 L 6.609375 0 Z M 3.75 0 " />
            </g>
        </g>
    </g>
    <g fill="#000000" fill-opacity="1">
        <g transform="translate(151.606295, 261.614808)">
            <g>
                <path
                    d="M 0.359375 -11.078125 C 0.359375 -9.554688 0.101562 -8.171875 -0.40625 -6.921875 C -0.925781 -5.679688 -1.648438 -4.601562 -2.578125 -3.6875 C -3.503906 -2.78125 -4.582031 -2.078125 -5.8125 -1.578125 C -7.050781 -1.085938 -8.394531 -0.84375 -9.84375 -0.84375 C -11.28125 -0.84375 -12.613281 -1.085938 -13.84375 -1.578125 C -15.070312 -2.078125 -16.15625 -2.78125 -17.09375 -3.6875 C -18.03125 -4.601562 -18.753906 -5.679688 -19.265625 -6.921875 C -19.785156 -8.171875 -20.046875 -9.554688 -20.046875 -11.078125 C -20.046875 -12.597656 -19.785156 -13.976562 -19.265625 -15.21875 C -18.753906 -16.46875 -18.03125 -17.546875 -17.09375 -18.453125 C -16.15625 -19.359375 -15.070312 -20.0625 -13.84375 -20.5625 C -12.613281 -21.0625 -11.28125 -21.3125 -9.84375 -21.3125 C -8.71875 -21.3125 -7.65625 -21.148438 -6.65625 -20.828125 C -5.664062 -20.503906 -4.757812 -20.066406 -3.9375 -19.515625 L -2.21875 -21.421875 L 0.453125 -19 L -1.40625 -16.984375 C -0.863281 -16.171875 -0.429688 -15.269531 -0.109375 -14.28125 C 0.203125 -13.289062 0.359375 -12.222656 0.359375 -11.078125 Z M -16.328125 -11.078125 C -16.328125 -9.890625 -16.046875 -8.835938 -15.484375 -7.921875 C -14.921875 -7.003906 -14.144531 -6.28125 -13.15625 -5.75 C -12.175781 -5.226562 -11.070312 -4.96875 -9.84375 -4.96875 C -8.582031 -4.96875 -7.460938 -5.226562 -6.484375 -5.75 C -5.515625 -6.28125 -4.75 -7.003906 -4.1875 -7.921875 C -3.625 -8.835938 -3.34375 -9.890625 -3.34375 -11.078125 C -3.34375 -12.160156 -3.585938 -13.144531 -4.078125 -14.03125 L -5.734375 -12.203125 L -8.40625 -14.5625 L -6.65625 -16.46875 C -7.632812 -16.9375 -8.695312 -17.171875 -9.84375 -17.171875 C -11.070312 -17.171875 -12.175781 -16.90625 -13.15625 -16.375 C -14.144531 -15.851562 -14.921875 -15.132812 -15.484375 -14.21875 C -16.046875 -13.300781 -16.328125 -12.253906 -16.328125 -11.078125 Z M -16.328125 -11.078125 " />
            </g>
        </g>
    </g>
    <g fill="#000000" fill-opacity="1">
        <g transform="translate(151.606295, 233.823793)">
            <g>
                <path
                    d="M 0.359375 -9.71875 C 0.359375 -8.039062 0.0351562 -6.609375 -0.609375 -5.421875 C -1.253906 -4.242188 -2.160156 -3.34375 -3.328125 -2.71875 C -4.503906 -2.101562 -5.859375 -1.796875 -7.390625 -1.796875 L -19.671875 -1.796875 L -19.671875 -5.765625 L -7.390625 -5.765625 C -6.140625 -5.765625 -5.144531 -6.109375 -4.40625 -6.796875 C -3.675781 -7.492188 -3.3125 -8.46875 -3.3125 -9.71875 C -3.3125 -11 -3.675781 -11.976562 -4.40625 -12.65625 C -5.144531 -13.34375 -6.140625 -13.6875 -7.390625 -13.6875 L -19.671875 -13.6875 L -19.671875 -17.65625 L -7.390625 -17.65625 C -5.859375 -17.65625 -4.503906 -17.34375 -3.328125 -16.71875 C -2.160156 -16.101562 -1.253906 -15.207031 -0.609375 -14.03125 C 0.0351562 -12.863281 0.359375 -11.425781 0.359375 -9.71875 Z M 0.359375 -9.71875 " />
            </g>
        </g>
    </g>
    <g fill="#000000" fill-opacity="1">
        <g transform="translate(151.606295, 208.758346)">
            <g>
                <path
                    d="M 0 -1.890625 L -19.671875 -1.890625 L -19.671875 -5.84375 L 0 -5.84375 Z M 0 -1.890625 " />
            </g>
        </g>
    </g>
    <g fill="#000000" fill-opacity="1">
        <g transform="translate(151.606295, 195.410043)">
            <g>
                <path
                    d="M -19.671875 -6.96875 L -6.265625 -12.59375 L -19.671875 -18.25 L -19.671875 -23.359375 L 0 -23.359375 L 0 -19.5625 L -14.046875 -19.5625 L -1.65625 -14.453125 L -1.65625 -10.765625 L -14.046875 -5.65625 L 0 -5.65625 L 0 -1.859375 L -19.671875 -1.859375 Z M -19.671875 -6.96875 " />
            </g>
        </g>
    </g>
    <g fill="#000000" fill-opacity="1">
        <g transform="translate(151.606295, 164.584357)">
            <g>
                <path
                    d="M 0 -1.890625 L -19.671875 -1.890625 L -19.671875 -8.15625 C -19.671875 -9.445312 -19.414062 -10.570312 -18.90625 -11.53125 C -18.40625 -12.5 -17.695312 -13.253906 -16.78125 -13.796875 C -15.863281 -14.335938 -14.785156 -14.609375 -13.546875 -14.609375 C -12.328125 -14.609375 -11.25 -14.332031 -10.3125 -13.78125 C -9.375 -13.226562 -8.644531 -12.460938 -8.125 -11.484375 C -7.601562 -10.515625 -7.34375 -9.414062 -7.34375 -8.1875 L -7.34375 -5.84375 L 0 -5.84375 Z M -10.765625 -5.84375 L -10.765625 -7.625 C -10.765625 -8.5 -11.019531 -9.203125 -11.53125 -9.734375 C -12.050781 -10.273438 -12.722656 -10.546875 -13.546875 -10.546875 C -14.367188 -10.546875 -15.023438 -10.269531 -15.515625 -9.71875 C -16.003906 -9.175781 -16.25 -8.492188 -16.25 -7.671875 L -16.25 -5.84375 Z M -10.765625 -5.84375 " />
            </g>
        </g>
    </g>
    <g fill="#000000" fill-opacity="1">
        <g transform="translate(151.606295, 143.733703)">
            <g>
                <path
                    d="M 0.359375 -11.078125 C 0.359375 -9.554688 0.101562 -8.171875 -0.40625 -6.921875 C -0.925781 -5.679688 -1.648438 -4.601562 -2.578125 -3.6875 C -3.503906 -2.78125 -4.582031 -2.078125 -5.8125 -1.578125 C -7.050781 -1.085938 -8.394531 -0.84375 -9.84375 -0.84375 C -11.28125 -0.84375 -12.613281 -1.085938 -13.84375 -1.578125 C -15.070312 -2.078125 -16.15625 -2.78125 -17.09375 -3.6875 C -18.03125 -4.601562 -18.753906 -5.679688 -19.265625 -6.921875 C -19.785156 -8.171875 -20.046875 -9.554688 -20.046875 -11.078125 C -20.046875 -12.597656 -19.785156 -13.976562 -19.265625 -15.21875 C -18.753906 -16.46875 -18.03125 -17.546875 -17.09375 -18.453125 C -16.15625 -19.359375 -15.070312 -20.0625 -13.84375 -20.5625 C -12.613281 -21.0625 -11.28125 -21.3125 -9.84375 -21.3125 C -8.394531 -21.3125 -7.050781 -21.0625 -5.8125 -20.5625 C -4.582031 -20.0625 -3.503906 -19.359375 -2.578125 -18.453125 C -1.648438 -17.546875 -0.925781 -16.46875 -0.40625 -15.21875 C 0.101562 -13.976562 0.359375 -12.597656 0.359375 -11.078125 Z M -16.328125 -11.078125 C -16.328125 -9.890625 -16.046875 -8.835938 -15.484375 -7.921875 C -14.921875 -7.003906 -14.144531 -6.28125 -13.15625 -5.75 C -12.175781 -5.226562 -11.070312 -4.96875 -9.84375 -4.96875 C -8.582031 -4.96875 -7.460938 -5.226562 -6.484375 -5.75 C -5.515625 -6.28125 -4.75 -7.003906 -4.1875 -7.921875 C -3.625 -8.835938 -3.34375 -9.890625 -3.34375 -11.078125 C -3.34375 -12.253906 -3.625 -13.300781 -4.1875 -14.21875 C -4.75 -15.132812 -5.515625 -15.851562 -6.484375 -16.375 C -7.460938 -16.90625 -8.582031 -17.171875 -9.84375 -17.171875 C -11.070312 -17.171875 -12.175781 -16.90625 -13.15625 -16.375 C -14.144531 -15.851562 -14.921875 -15.132812 -15.484375 -14.21875 C -16.046875 -13.300781 -16.328125 -12.253906 -16.328125 -11.078125 Z M -16.328125 -11.078125 " />
            </g>
        </g>
    </g>
</svg>